<?xml version="1.0" encoding="utf-8"?>
<!-- Generator: Adobe Illustrator 29.7.1, SVG Export Plug-In . SVG Version: 9.03 Build 0)  -->
<svg version="1.0" id="レイヤー_1" xmlns="http://www.w3.org/2000/svg" xmlns:xlink="http://www.w3.org/1999/xlink" x="0px"
	 y="0px" viewBox="0 0 873.11 873.11" style="enable-background:new 0 0 873.11 873.11;" xml:space="preserve">
<style type="text/css">
	.st0{fill:#5CACD2;}
	.st1{fill:#F3A145;}
	.st2{fill:#E8A448;}
	.st3{fill:#D8A84E;}
	.st4{fill:#C6AC54;}
	.st5{fill:#B6AF5A;}
	.st6{fill:#A5B461;}
	.st7{fill:#91B86A;}
	.st8{fill:#7EBB74;}
	.st9{fill:#66BB82;}
</style>
<g>
	<g>
		<path class="st0" d="M73.57,632.1c-3.38-0.84-5.49-2.96-11.22-11.22c-19.73-28.36-32.28-61.48-36.38-95.94
			c-1.21-9.77-1.21-35.54,0-46.52c1.45-13.82,3.32-24.26,6.34-35.54c7.96-29.87,23.41-60.64,42.36-84.29
			c7.42-9.23,24.2-25.76,34.57-34.03c14.72-11.71,17.44-14.84,18.89-21.72c0.48-2.29,0.48-3.86-0.12-6.34
			c-1.15-4.89-2.47-6.94-8.15-12.91c-7.9-8.21-11.77-12.55-15.81-17.86c-15.75-20.76-24.68-46.16-24.68-70.41
			c0.06-49.05,28.42-92.2,72.71-110.54c25.88-10.68,54-11.89,80.97-3.32c27.03,8.57,47.18,24.26,60.76,47.36
			c10.98,18.7,15.51,34.27,17.8,61.24c0.97,11.4,3.02,16.41,12.07,30.17c7.72,11.65,9.96,16.35,10.2,21.66
			c0.24,5.01-0.66,7.66-3.8,11.16c-2.65,2.9-6.52,4.59-13.03,5.73c-5.85,1.03-6.88,1.33-9.11,2.9c-2.96,2.05-4.59,5.67-5.61,12.55
			c-1.45,9.35-3.2,17.5-4.77,22.14c-5.07,14.84-12.67,23.05-24.68,26.55c-4.22,1.21-6.94,1.51-18.52,1.93
			c-12.07,0.36-13.88,0.6-15.99,1.69c-7.3,3.8-10.56,12.31-7.72,20.21c0.54,1.63,3.86,6.58,7.78,11.58
			c12.13,15.69,20.82,29.75,26.19,42.18c7.96,18.58,11.77,33.19,13.27,51.11c0.3,3.8,0.6,35.3,0.66,69.99l0.06,63.05l-1.27,3.38
			c-3.98,10.38-13.64,18.16-25.22,20.15c-3.74,0.66-7.84,0.72-20.39,0.3c-20.76-0.78-33.55-1.87-56.42-4.89
			c-23.77-3.14-28.54-4.04-40.31-7.54c-10.8-3.2-16.35-4.1-20.51-3.26c-4.16,0.91-9.65,3.68-12.79,6.58
			c-4.22,3.92-5.97,6.7-7.6,12.07c-3.32,11.16-3.62,11.77-6.64,15.57C83.88,631.38,78.63,633.31,73.57,632.1L73.57,632.1z"/>
	</g>
	<g>
		<path class="st1" d="M411.52,796.71c-15.81-0.91-27.15-1.81-38.92-3.26c-19.97-2.47-21.66-2.72-34.09-5.13
			c-10.2-2.05-11.89-2.35-14.48-2.96c-1.33-0.3-3.74-0.84-5.43-1.21c-12.31-2.59-23.89-5.91-43.14-12.43
			c-19.55-6.58-26.49-9.23-46.16-17.68c-12.37-5.37-41.27-20.76-56.72-30.29c-4.59-2.84-18.83-12.97-28.18-20.09
			c-15.02-11.46-35-29.2-39.34-35c-2.23-2.96-2.29-6.94-0.18-12.49c9.53-24.86,10.32-26.43,15.33-29.57
			c2.29-1.51,3.5-1.81,6.34-1.81c2.11,0,4.34,0.42,5.49,0.97c1.09,0.6,4.95,3.92,8.57,7.42c8.27,8.02,13.27,12.37,22.02,19.37
			c3.8,3.02,7.36,5.79,7.84,6.21c12.07,9.65,33,23.35,48.87,31.98c1.81,0.97,3.62,2.05,3.98,2.35c0.84,0.6,27.21,13.76,27.69,13.76
			c0.18,0,2.41,0.97,4.95,2.17c8.15,3.74,15.27,6.46,30.05,11.4c9.35,3.14,14.06,4.53,31.38,9.29c4.59,1.27,13.58,3.44,15.99,3.86
			c0.84,0.18,4.22,0.91,7.54,1.63c3.32,0.72,7.54,1.57,9.35,1.81c1.81,0.3,6.58,1.09,10.56,1.75c25.22,4.34,54.67,6.7,83.21,6.7
			c13.58,0,37.23-1.21,41.57-2.17c1.45-0.3,1.63-0.18,1.63,1.21c0,1.63-0.18,1.69-4.83,2.41c-1.93,0.3-26.13,2.17-28.48,2.17
			c-0.72,0-1.09,0.48-1.09,1.51c0,0.97-0.36,1.51-0.91,1.51c-0.48,0-0.91,0.3-0.91,0.6c0,0.36,0.54,0.6,1.21,0.6
			c1.57,0,2.41,1.75,2.41,5.07c0,1.51,0.3,2.78,0.6,2.78c0.36,0,0.6,0.97,0.6,2.11c0,1.87,0.18,2.11,1.51,2.11
			c1.09,0,1.69,0.42,2.11,1.51c0.42,1.09,1.03,1.51,2.11,1.51c1.27,0,1.51,0.3,1.51,1.81c0,1.51,0.24,1.81,1.51,1.81
			c0.97,0,1.51,0.36,1.51,0.91c0,0.48,0.3,0.91,0.6,0.91c0.36,0,0.6,0.66,0.6,1.45c0,0.91,0.42,1.57,1.21,1.75
			c0.91,0.24,1.21,0.84,1.21,2.41c0,1.21-0.3,2.23-0.66,2.35c-1.03,0.36-0.84,3.26,0.24,4.34c0.54,0.54,1.63,0.97,2.47,0.97
			c1.45,0,1.57,0.24,1.57,2.35c0,1.99-0.24,2.41-1.33,2.65c-0.78,0.12,0,0.3,1.63,0.36c2.9,0.06,9.77-0.54,37.59-3.32
			c4.1-0.36,4.34-0.36,4.34,0.78c0,1.51-0.66,1.69-9.71,2.84C472.64,796.95,439.99,798.33,411.52,796.71L411.52,796.71z"/>
		<path class="st1" d="M490.26,744.27c0-1.15,0.3-1.27,4.4-2.11c0.78-0.12,1.03,0.24,1.03,1.57c0,1.69-0.12,1.75-2.72,1.75
			C490.68,745.48,490.26,745.3,490.26,744.27z"/>
		<path class="st1" d="M387.5,583.53c-3.02-1.15-4.89-2.9-6.4-6.15c-1.21-2.47-1.27-3.74-1.27-19.67c0-19.25-0.06-19.43-4.65-22.45
			c-2.23-1.45-2.72-1.45-16.47-1.75c-12.19-0.24-14.78-0.48-18.7-1.63c-12.91-3.74-22.81-11.95-28.12-23.35
			c-5.31-11.34-5.61-15.81-5.61-81.94c-0.06-56.29,0-56.78,2.65-66.97c4.46-16.95,17.74-28.6,38.31-33.61
			c2.72-0.6,20.03-0.78,91.11-0.78h87.79l4.53,1.39c8.27,2.59,15.27,6.46,20.58,11.46c9.47,8.87,13.27,17.02,14.96,31.62
			c0.84,7.54,0.91,101.37,0.06,116.09c-0.66,10.98-0.91,12.43-3.2,18.34c-4.1,10.74-17.14,23.59-27.09,26.61
			c-1.09,0.36-3.32,1.09-5.01,1.57c-2.65,0.91-8.02,1.03-42.9,1.15c-34.57,0.06-40.06,0.24-41.63,1.03
			c-1.39,0.72-33.67,33.13-44.65,44.77C397.46,583.84,392.39,585.34,387.5,583.53L387.5,583.53z"/>
	</g>
	<g>
		<path class="st2" d="M420.75,796.95c0.72-0.12,1.93-0.12,2.72,0c0.72,0.12,0.12,0.24-1.39,0.24S419.96,797.07,420.75,796.95z"/>
		<path class="st2" d="M452.12,796.95c0.72-0.12,1.93-0.12,2.72,0c0.72,0.12,0.12,0.24-1.39,0.24S451.34,797.07,452.12,796.95z"/>
		<path class="st2" d="M408.98,796.34c0.54-0.12,1.51-0.12,2.11,0c0.54,0.18,0.06,0.3-1.09,0.3
			C408.86,796.64,408.38,796.52,408.98,796.34z"/>
		<path class="st2" d="M462.68,796.34c0.91-0.12,2.35-0.12,3.32,0c0.91,0.12,0.12,0.24-1.69,0.24S461.72,796.46,462.68,796.34z"/>
		<path class="st2" d="M398.12,795.74c0.54-0.12,1.51-0.12,2.11,0c0.54,0.18,0.06,0.3-1.09,0.3
			C398,796.04,397.52,795.92,398.12,795.74z"/>
		<path class="st2" d="M473.84,795.74c0.72-0.12,1.81-0.12,2.41,0c0.54,0.18-0.06,0.3-1.39,0.24
			C473.54,795.98,473.06,795.86,473.84,795.74z"/>
		<path class="st2" d="M454.05,794.65c0-1.03,1.51-1.21,2.11-0.3c0.24,0.36,0.6,0.48,0.91,0.3c0.3-0.18,2.11-0.48,4.04-0.66
			c1.93-0.18,3.62-0.54,3.68-0.91c0.12-0.3,1.03-0.54,1.99-0.54c1.81,0,3.26-1.81,1.87-2.29c-0.42-0.12-0.72-0.72-0.72-1.39
			c0-0.6-0.24-1.15-0.54-1.15c-0.3,0-0.66-0.54-0.84-1.21c-0.18-0.66-0.6-1.21-0.97-1.21c-0.97,0-0.84,0.97,0.24,2.05
			c0.78,0.72,0.78,1.15,0.24,2.11c-0.97,1.45-2.53,0.97-2.05-0.6c0.3-0.84,0-1.33-1.03-1.69l-1.39-0.6l1.51-0.06l1.51-0.06
			l-1.33-0.66c-0.78-0.36-1.39-1.03-1.39-1.51c0-0.42-0.36-1.39-0.72-2.05c-0.66-1.03-0.6-1.39,0.54-2.35
			c1.21-0.91,1.27-1.21,0.48-1.81c-0.48-0.42-1.33-0.6-1.81-0.36c-0.6,0.24-0.91-0.06-0.91-0.84c0-0.66,0.3-1.21,0.6-1.21
			c0.36,0,0.6-0.3,0.6-0.66s-0.42-0.48-0.97-0.3c-0.48,0.18-0.72,0.12-0.54-0.18c0.84-1.39-0.97-1.09-2.05,0.3l-1.27,1.63v-1.63
			c0-0.84,0.24-1.57,0.54-1.57s0.66-0.48,0.91-1.03c0.18-0.6,0.48-1.39,0.66-1.75c0.24-0.48-0.18-0.6-1.27-0.36
			c-1.27,0.24-1.51,0.06-1.33-0.84c0.12-0.72,0.66-1.09,1.33-0.97c0.6,0.12,0.91-0.06,0.72-0.42c-0.24-0.36-1.21-0.48-2.17-0.24
			c-1.15,0.18-2.35,0-3.32-0.66c-1.57-1.03-2.05-3.08-0.72-3.56c0.36-0.18,0.12-0.36-0.6-0.36c-0.91-0.06-1.27-0.36-1.03-0.91
			c0.18-0.48,0-1.45-0.36-2.17c-0.6-1.09-0.54-1.51,0.18-2.23c1.27-1.27,2.35-0.42,1.99,1.63c-0.18,1.15,0,1.63,0.48,1.45
			c0.72-0.3,0.78-3.86,0.06-5.01c-0.18-0.36-0.66-0.54-0.97-0.3c-0.72,0.42-2.47-0.91-2.05-1.57c0.12-0.24-0.3-0.42-1.09-0.36
			c-1.57,0.06-2.23-2.29-0.78-2.84c0.54-0.24,0.97-0.12,0.97,0.18c0,0.36,0.3,0.6,0.66,0.6c0.3,0,0.42-0.24,0.24-0.6
			c-0.3-0.54,0.36-0.84,1.57-0.72c0.18,0.06,0.36-0.3,0.36-0.72c0-0.48-0.97-0.78-2.72-0.78c-4.46-0.06-4.22-1.21,0.3-1.33
			c6.46-0.12,21.54-1.21,29.14-1.99c5.91-0.6,6.58-0.78,4.53-1.15l-2.41-0.42l2.9,0.06c1.57,0.06,2.84-0.06,2.84-0.3
			c0-0.3,0.91-0.48,1.99-0.48c1.93,0,19.97-2.53,23.83-3.38c1.93-0.42,1.99-0.36,1.81,1.33c-0.18,1.57-0.48,1.81-2.9,2.17
			c-1.51,0.18-4.59,0.66-6.94,1.09c-8.39,1.39-11.58,1.87-16.59,2.41c-2.84,0.3-5.43,0.6-5.85,0.6c-1.03,0,0.24,3.56,3.44,9.71
			c0.48,0.97,1.21,1.75,1.63,1.75c0.36,0,0.84,1.03,1.09,2.29c0.36,2.11,2.72,5.55,3.86,5.55c0.24,0,0.84,1.09,1.27,2.41
			s1.27,2.53,1.93,2.72c0.66,0.24,1.09,0.97,1.09,1.87c0,1.15,0.3,1.45,1.45,1.45c1.33,0,1.51,0.3,1.87,3.32
			c0.24,1.81,0.66,3.32,0.97,3.32c0.84,0,0.66,7.66-0.18,8.09c-1.45,0.6,13.7-1.15,26.13-3.02c3.2-0.48,6.7-0.84,7.72-0.84
			c1.69,0,1.93,0.18,1.75,1.39c-0.12,1.09-0.66,1.39-3.2,1.75c-1.63,0.18-5.07,0.72-7.54,1.15c-2.47,0.48-6.28,0.78-8.39,0.78
			c-2.35,0-3.38,0.18-2.72,0.48c0.66,0.24-0.12,0.36-1.87,0.18c-2.23-0.18-2.59-0.12-1.51,0.24c1.39,0.48,1.33,0.54-0.66,0.6
			c-1.21,0.06-3.14,0.18-4.22,0.36c-1.81,0.24-1.87,0.24-0.54-0.3c1.81-0.72-1.63-0.54-16.29,0.84c-7.96,0.78-29.57,2.17-33,2.17
			C454.42,795.56,454.05,795.14,454.05,794.65L454.05,794.65z M464.49,784.52c0.42-0.42,1.09-1.39,1.51-2.11
			c0.72-1.33,0.72-1.33-0.48-0.72c-0.97,0.48-1.21,0.48-1.21-0.24c0-1.27-1.63-1.63-2.47-0.6c-0.6,0.72-0.6,0.91,0.06,0.72
			c0.84-0.18,0.97,0.12,1.15,2.53C463.1,785.48,463.53,785.6,464.49,784.52L464.49,784.52z M467.03,779.45
			c0.54,0.24,0.84,0.18,0.6-0.18c-0.18-0.36-0.78-0.6-1.27-0.6c-0.84,0-1.09-0.66-0.91-2.23c0.06-0.42-0.18-0.78-0.54-0.78
			c-0.3,0-0.6-0.42-0.6-0.91s-0.42-0.91-0.91-0.91c-1.21,0-1.15,0.36,0.42,2.59c0.97,1.33,1.09,1.93,0.6,2.11
			c-0.6,0.18-0.6,0.42-0.06,1.09c0.54,0.66,0.84,0.72,1.21,0.18C465.82,779.39,466.42,779.27,467.03,779.45L467.03,779.45z
			 M453.75,765.45c0.18-0.3,0-0.78-0.36-1.03c-0.48-0.24-0.42-0.54,0.12-0.91c0.66-0.42,0.66-0.54,0.06-0.54
			c-1.39,0-2.53,1.57-1.75,2.35C452.6,766.11,453.27,766.17,453.75,765.45L453.75,765.45z"/>
		<path class="st2" d="M487.42,794.53c0.54-0.12,1.51-0.12,2.11,0c0.54,0.18,0.06,0.3-1.09,0.3S486.82,794.71,487.42,794.53z"/>
		<path class="st2" d="M396.31,793.93c0.54-0.12,1.51-0.12,2.11,0c0.54,0.18,0.06,0.3-1.09,0.3
			C396.19,794.23,395.71,794.11,396.31,793.93z"/>
		<path class="st2" d="M498.28,793.33c0.54-0.12,1.51-0.12,2.11,0c0.54,0.18,0.06,0.3-1.09,0.3S497.68,793.51,498.28,793.33z"/>
		<path class="st2" d="M456.77,777.64c0.12-0.6,0.24-1.27,0.24-1.51c0.06-0.3,0.54-0.48,1.09-0.48c0.78,0,0.84,0.18,0.36,0.66
			c-0.36,0.36-0.54,1.09-0.36,1.51c0.18,0.48-0.06,0.84-0.6,0.84S456.65,778.24,456.77,777.64L456.77,777.64z"/>
		<path class="st2" d="M453.27,773.05c-0.12-0.36,0.06-1.09,0.54-1.45c0.6-0.6,0.78-0.6,1.03,0
			C455.38,773.23,453.93,774.68,453.27,773.05z"/>
		<path class="st2" d="M446.57,763.1c-0.18-0.36,0.18-0.72,0.91-0.91c0.72-0.18,1.15-0.06,0.97,0.36
			C448.14,763.46,446.99,763.76,446.57,763.1z"/>
		<path class="st2" d="M446.81,757.97c0-1.51,0.66-2.84,1.45-2.84c1.15,0,0.91,1.69-0.36,2.84
			C446.93,758.81,446.81,758.81,446.81,757.97z"/>
		<path class="st2" d="M423.52,747.17c-0.18-0.24,0.24-0.48,0.91-0.48c0.72,0,1.27,0.24,1.27,0.48c0,0.3-0.42,0.54-0.91,0.54
			C424.25,747.71,423.7,747.47,423.52,747.17z"/>
		<path class="st2" d="M411.82,746.69l-3.32-0.42h3.62c1.99-0.06,4.28,0.18,5.13,0.42c1.45,0.48,1.45,0.48-0.3,0.42
			C415.98,747.11,413.63,746.93,411.82,746.69z"/>
		<path class="st2" d="M395.41,745.06c0.72-0.12,1.81-0.12,2.41,0c0.54,0.18-0.06,0.3-1.39,0.24
			C395.1,745.3,394.62,745.18,395.41,745.06z"/>
		<path class="st2" d="M410.19,744.45c0.54-0.12,1.51-0.12,2.11,0c0.54,0.18,0.06,0.3-1.09,0.3
			C410.07,744.75,409.58,744.63,410.19,744.45z"/>
		<path class="st2" d="M472.64,744.45c0.72-0.12,1.81-0.12,2.41,0c0.54,0.18-0.06,0.3-1.39,0.24
			C472.34,744.69,471.85,744.57,472.64,744.45z"/>
		<path class="st2" d="M383.34,743.85c0.72-0.12,1.81-0.12,2.41,0c0.54,0.18-0.06,0.3-1.39,0.24
			C383.04,744.09,382.55,743.97,383.34,743.85z"/>
		<path class="st2" d="M136.98,630.11l-3.02-3.2l3.2,3.02c2.9,2.78,3.44,3.32,2.96,3.32C140.06,633.25,138.61,631.8,136.98,630.11z"
			/>
		<path class="st2" d="M414.53,565.67c1.63-1.63,3.08-3.02,3.26-3.02c0.18,0-1.03,1.39-2.65,3.02c-1.63,1.69-3.08,3.02-3.26,3.02
			C411.7,568.69,412.9,567.36,414.53,565.67z"/>
		<path class="st2" d="M367.35,533.27c0.54-0.12,1.51-0.12,2.11,0c0.54,0.18,0.06,0.3-1.09,0.3
			C367.23,533.57,366.74,533.45,367.35,533.27z"/>
		<path class="st2" d="M466.6,533.27c0.72-0.12,1.81-0.12,2.41,0c0.54,0.18-0.06,0.3-1.39,0.24
			C466.3,533.51,465.82,533.39,466.6,533.27z"/>
		<path class="st2" d="M476.26,533.27c0.72-0.12,1.81-0.12,2.41,0c0.54,0.18-0.06,0.3-1.39,0.24
			C475.96,533.51,475.47,533.39,476.26,533.27z"/>
		<path class="st2" d="M481.08,533.27c0.72-0.12,1.81-0.12,2.41,0c0.54,0.18-0.06,0.3-1.39,0.24
			C480.78,533.51,480.3,533.39,481.08,533.27z"/>
		<path class="st2" d="M508.54,533.27c1.21-0.12,3.26-0.12,4.53,0c1.21,0.12,0.18,0.24-2.29,0.24
			C508.3,533.51,507.27,533.39,508.54,533.27z"/>
		<path class="st2" d="M519.1,533.27c0.72-0.12,1.81-0.12,2.41,0c0.54,0.18-0.06,0.3-1.39,0.24
			C518.79,533.51,518.31,533.39,519.1,533.27z"/>
		<path class="st2" d="M566.52,454.05c0-10.14,0.12-14.24,0.18-9.17c0.12,5.01,0.12,13.33,0,18.4
			C566.64,468.29,566.52,464.19,566.52,454.05z"/>
		<path class="st2" d="M566.58,405.48c0-16.59,0.06-23.29,0.12-14.9c0.12,8.39,0.12,21.96,0,30.17
			C566.64,428.95,566.58,422.07,566.58,405.48z"/>
		<path class="st2" d="M525.43,327.52c0.54-0.12,1.51-0.12,2.11,0c0.54,0.18,0.06,0.3-1.09,0.3S524.83,327.7,525.43,327.52z"/>
	</g>
	<g>
		<path class="st3" d="M464.49,796.34c0.54-0.12,1.51-0.12,2.11,0c0.54,0.18,0.06,0.3-1.09,0.3S463.89,796.52,464.49,796.34z"/>
		<path class="st3" d="M490.19,792.3c0.48-0.6,1.75-0.97,3.2-0.97s2.23-0.24,1.99-0.6c-0.18-0.3,0.06-0.6,0.54-0.6
			c0.54,0,0.97-0.54,0.97-1.21s0.3-1.21,0.66-1.21c1.21,0,0.18-1.45-1.27-1.81c-1.27-0.3-1.33-0.42-0.48-1.27
			c0.97-0.97,1.09-3.92,0.24-5.31c-0.24-0.42-0.3-1.15-0.12-1.63c0.24-0.72,0.12-0.72-0.91-0.24c-0.84,0.48-1.09,1.03-0.84,1.87
			c0.24,0.66,0.12,1.15-0.24,1.15c-0.36,0-0.66-0.42-0.66-0.91s-0.36-0.91-0.84-0.91c-1.15,0-0.91-3.5,0.24-4.22
			c0.78-0.54,0.78-0.6,0-0.66c-0.48-0.06-1.45-0.06-2.11,0c-0.91,0.06-1.03,0-0.42-0.42c0.91-0.6,0.91-1.09-0.06-2.84
			c-0.36-0.66-0.6-1.45-0.48-1.81c0.06-0.3,0-0.42-0.24-0.18c-0.24,0.24-1.45-0.72-2.72-2.11c-1.51-1.63-2.05-2.65-1.63-2.96
			c0.6-0.36-1.93-1.81-3.5-1.93c-0.3-0.06-0.66-0.6-0.84-1.27c-0.18-0.97-0.06-1.03,0.72-0.42c1.93,1.63,1.69-0.6-0.48-3.86
			c-1.21-1.81-2.05-3.68-1.87-4.16c0.18-0.48,0-1.21-0.42-1.63c-0.42-0.42-0.72-1.15-0.78-1.51c-0.06-0.42-0.12-1.03-0.12-1.39
			c-0.06-0.3-1.69-0.66-3.56-0.66c-1.93-0.06-2.65-0.18-1.69-0.3c1.03-0.12,4.53-0.54,7.84-0.84c5.67-0.66,8.02-0.97,17.38-2.41
			c8.51-1.27,8.75-1.33,7.06-1.87c-1.03-0.3-0.24-0.42,2.41-0.36c2.47,0.06,3.86-0.12,3.8-0.54c-0.06-0.36,1.99-0.97,4.53-1.39
			c5.31-0.84,9.71-1.75,12.85-2.53c3.2-0.78,3.56-0.72,3.56,0.97c0,1.63-0.66,1.93-9.35,3.62c-2.65,0.54-6.58,1.33-8.75,1.87
			c-2.17,0.48-4.53,1.03-5.25,1.21c-1.69,0.36-1.75,1.09-0.18,2.65c0.66,0.66,1.21,1.63,1.21,2.11s0.24,0.91,0.54,0.91
			c0.3,0,0.66,1.03,0.84,2.29c0.24,1.33,0.91,2.53,1.63,3.02c0.78,0.48,1.21,1.39,1.21,2.47c0,1.03,0.3,1.99,0.6,2.17
			c0.36,0.18,0.6,1.09,0.6,1.93c0,0.84,0.78,2.47,1.81,3.62c1.03,1.09,1.81,2.59,1.81,3.2c0,0.66,0.36,1.21,0.78,1.21
			c0.42,0,1.15,0.97,1.63,2.11c0.48,1.15,1.21,2.11,1.63,2.11c0.48,0,0.78,0.72,0.78,1.75c0,1.03,0.3,1.99,0.6,2.17
			c0.36,0.18,0.6,2.29,0.6,4.59v4.28l1.69-0.36c0.91-0.18,5.31-0.91,9.77-1.63c4.46-0.72,9.35-1.51,10.86-1.81
			c4.65-0.84,6.03-0.66,6.03,0.6c0,1.21,0.3,1.09-14.78,4.28c-2.96,0.6-7.06,1.09-9.05,1.09s-6.76,0.42-10.56,0.97
			s-10.98,1.39-15.99,1.87c-4.95,0.48-9.96,1.03-11.1,1.27C489.65,793.21,489.53,793.15,490.19,792.3L490.19,792.3z"/>
		<path class="st3" d="M516.38,790.91c0.54-0.12,1.51-0.12,2.11,0c0.54,0.18,0.06,0.3-1.09,0.3S515.78,791.09,516.38,790.91z"/>
		<path class="st3" d="M486.51,743.25c0.72-0.12,1.81-0.12,2.41,0c0.54,0.18-0.06,0.3-1.39,0.24
			C486.21,743.49,485.73,743.37,486.51,743.25z"/>
		<path class="st3" d="M457.55,533.27c0.72-0.12,1.81-0.12,2.41,0c0.54,0.18-0.06,0.3-1.39,0.24
			C457.25,533.51,456.77,533.39,457.55,533.27z"/>
		<path class="st3" d="M470.22,533.27c1.39-0.12,3.56-0.12,4.83,0c1.21,0.12,0.06,0.24-2.59,0.24S468.78,533.39,470.22,533.27z"/>
		<path class="st3" d="M478.67,533.27c0.72-0.12,1.81-0.12,2.41,0c0.54,0.18-0.06,0.3-1.39,0.24
			C478.37,533.51,477.89,533.39,478.67,533.27z"/>
		<path class="st3" d="M488.57,533.27c3.56-0.12,9.53-0.12,13.27,0c3.74,0.06,0.84,0.18-6.46,0.18
			C488.08,533.45,485.01,533.33,488.57,533.27z"/>
		<path class="st3" d="M514.87,533.27c1.09-0.12,2.72-0.12,3.62,0c0.91,0.12,0,0.24-1.99,0.24S513.79,533.39,514.87,533.27z"/>
		<path class="st3" d="M566.46,474.87c0-2.65,0.12-3.68,0.24-2.23c0.12,1.39,0.12,3.56,0,4.83
			C566.58,478.67,566.46,477.52,566.46,474.87z"/>
		<path class="st3" d="M566.46,375.31c0-1.33,0.12-1.81,0.24-1.03c0.12,0.72,0.12,1.81,0,2.41
			C566.52,377.24,566.4,376.64,566.46,375.31z"/>
	</g>
	<g>
		<path class="st4" d="M522.6,787.78c-0.18-0.3-0.24-2.11-0.06-4.04c0.18-3.14,0.06-3.68-1.09-4.59c-0.72-0.6-0.97-1.09-0.54-1.09
			c1.03,0,0.91-2.41-0.18-2.41c-0.48,0-0.91,0.48-0.91,1.03c0,0.84-0.18,0.84-0.72,0.3c-0.6-0.6-0.6-0.91,0.12-1.33
			c1.21-0.78,0.06-2.65-1.75-2.9c-1.09-0.18-1.27-0.54-1.03-1.99c0.12-0.97,0-1.63-0.24-1.45c-0.3,0.18-0.66,0.06-0.91-0.3
			c-0.18-0.3-0.06-0.6,0.36-0.6c0.42,0,0.06-0.72-0.78-1.63c-1.75-1.93-3.38-4.77-2.35-4.16c1.03,0.66,0.78-0.6-0.3-1.45
			c-0.48-0.42-0.84-1.39-0.72-2.05c0.18-1.51-0.6-2.96-1.39-2.47c-0.3,0.24-0.54-0.18-0.54-0.84s-0.42-1.63-0.97-2.11
			c-0.48-0.54-0.66-0.97-0.3-0.97c0.36,0,0.66-0.3,0.66-0.66c0-0.3-0.24-0.42-0.6-0.24c-0.3,0.18-0.6-0.06-0.6-0.6
			s-0.54-1.45-1.27-2.05c-0.78-0.6-1.27-1.81-1.33-3.08c-0.12-1.63-0.48-2.29-1.63-2.84l-1.51-0.72l1.81-0.06
			c1.03,0,3.56-0.42,5.73-0.91s7.3-1.57,11.46-2.47c4.16-0.84,7.72-1.81,7.96-2.23c0.36-0.6,3.56-1.39,13.46-3.44
			c1.69-0.36,3.5-0.78,4.1-0.97c0.91-0.3,1.09-0.06,0.91,1.39c-0.18,1.63-0.48,1.75-6.52,3.32c-3.5,0.91-7.06,1.87-7.96,2.05
			c-1.39,0.3-1.69,0.72-1.69,2.11c0,1.09,0.42,1.93,1.15,2.35c0.72,0.36,1.33,1.57,1.57,3.14c0.48,2.72,1.45,4.1,2.96,4.1
			c0.54,0,0.97,0.48,0.97,1.09c0,0.54,0.42,1.57,0.91,2.17c0.48,0.66,0.91,1.69,0.91,2.29c0,0.6,0.36,1.09,0.84,1.09
			c0.54,0,0.97,1.09,1.21,3.02c0.3,2.05,0.66,3.02,1.27,3.02c0.48,0,0.91,0.54,0.91,1.15c0,0.66,0.42,1.57,0.91,2.11
			c0.48,0.48,0.91,1.93,0.91,3.32c0,3.44,0.91,5.49,2.47,5.49c1.21,0,1.27,0.24,0.97,3.02l-0.36,3.08l2.23-0.36
			c1.21-0.24,6.21-1.21,11.04-2.17c10.44-2.11,11.4-2.11,11.4-0.6c0,0.84-0.84,1.33-4.04,2.05c-2.29,0.54-7.06,1.69-10.68,2.53
			c-3.62,0.91-6.94,1.45-7.42,1.27s-0.66-0.06-0.48,0.24c0.18,0.36-0.18,0.6-0.84,0.6c-0.6,0-1.69,0.18-2.29,0.36
			c-0.91,0.3-0.97,0.24-0.18-0.36c0.72-0.6,0.66-0.66-0.6-0.36c-0.84,0.18-1.93,0.36-2.41,0.42c-0.6,0-0.54,0.18,0.3,0.54
			c0.91,0.42,0.66,0.48-0.91,0.24c-1.15-0.18-5.55,0.24-9.77,0.91C525.73,788.44,523.08,788.62,522.6,787.78L522.6,787.78z"/>
	</g>
	<g>
		<path class="st5" d="M544.86,783.73c0.54-0.54,0.84-1.33,0.66-1.81c-0.18-0.42,0.12-1.09,0.54-1.45c0.78-0.6,0.72-0.97-0.36-2.35
			c-0.66-0.84-1.69-1.75-2.23-1.99c-0.97-0.36-0.97-0.42-0.06-0.42c0.84-0.06,0.97-0.48,0.6-1.99c-0.18-1.09-0.36-2.53-0.36-3.2
			c0.06-0.66-0.42-1.63-0.91-2.11c-1.81-1.63-3.14-4.16-2.65-4.95c0.24-0.42,0.24-0.6-0.06-0.36c-0.6,0.6-2.29-1.75-1.81-2.47
			c0.18-0.3,0-0.78-0.36-1.03c-0.48-0.24-0.54-0.18-0.3,0.24c0.24,0.42,0.06,0.72-0.54,0.72c-0.84,0-0.84-0.18-0.06-1.75
			c0.78-1.51,0.78-1.87,0-2.96c-0.48-0.72-1.27-1.15-1.75-0.97c-1.27,0.48-1.15-0.36,0.18-1.33c0.97-0.78,0.97-0.78-0.06-0.84
			c-0.6,0-1.81-0.72-2.72-1.57c-0.91-0.91-1.27-1.39-0.84-1.21c0.42,0.3,0.72,0.06,0.72-0.6c0-0.6-0.18-0.91-0.36-0.66
			c-0.18,0.18-0.84-0.12-1.51-0.66c-1.15-1.03-1.15-1.03,0.18-1.39l1.39-0.3l-1.51-0.91c-1.09-0.6-1.51-1.33-1.51-2.65
			c0-1.03-0.36-1.87-0.72-1.87c-0.42-0.06-0.97-0.18-1.21-0.24c-0.3-0.06-0.66-0.12-0.91-0.06c-0.3,0-0.48-0.18-0.48-0.48
			s-0.78-0.42-1.81-0.36c-2.53,0.24-1.69-0.72,1.03-1.09c1.27-0.18,3.38-0.6,4.71-0.91c11.95-2.96,15.08-3.86,15.81-4.47
			c0.48-0.36,4.83-1.69,9.71-2.96c4.89-1.27,9.47-2.47,10.26-2.72c1.09-0.3,1.33-0.12,1.33,1.09c0,1.63-2.53,3.02-7.78,4.4
			l-2.78,0.72l0.18,3.86c0.24,4.4,1.15,7.84,2.29,8.57c0.42,0.24,0.91,1.51,1.15,2.84c0.24,1.33,0.72,2.78,1.15,3.2
			c0.42,0.42,1.15,1.75,1.51,3.02c0.42,1.21,0.97,2.23,1.27,2.23c0.3,0,0.6,0.6,0.72,1.39c0.12,0.72,0.78,1.57,1.57,1.93
			c0.72,0.3,1.33,0.97,1.33,1.39c0,0.97,1.81,3.86,2.84,4.53c0.42,0.24,0.78,0.97,0.78,1.51c0,0.54,0.42,1.57,0.91,2.17
			c0.48,0.66,0.91,1.69,0.91,2.29c0,0.6,0.3,1.09,0.6,1.09c0.36,0,0.6,0.42,0.6,0.91c0,0.66,0.42,0.84,1.39,0.6
			c7.66-1.75,9.41-2.11,11.16-2.11c1.45,0,1.93,0.24,1.93,1.09c0,0.78-1.69,1.51-8.15,3.32c-4.46,1.27-8.45,2.11-8.87,1.87
			c-0.42-0.3-0.48-0.18-0.18,0.36c0.36,0.6,0,0.72-1.39,0.48c-1.03-0.12-1.75-0.06-1.57,0.24s-0.42,0.36-1.39,0.18
			c-1.27-0.3-1.45-0.24-0.78,0.24c0.72,0.54,0.66,0.66-0.6,0.72c-6.7,0.3-8.87,0.6-14.12,1.69C544.14,785,543.53,785,544.86,783.73
			L544.86,783.73z"/>
	</g>
	<g>
		<path class="st6" d="M570.38,778c-0.6-0.42-0.48-0.6,0.6-0.91c1.57-0.42,1.81-1.45,0.24-1.15c-0.72,0.12-1.09-0.18-1.09-0.91
			c0-0.6,0.24-0.97,0.48-0.84c0.24,0.18,0.48,0,0.48-0.3c0-0.36-0.24-0.66-0.6-0.66c-0.3,0-0.54-0.18-0.48-0.42
			c0.06-0.3-0.18-1.09-0.6-1.75c-0.36-0.72-0.54-1.45-0.36-1.63c0.18-0.18,0.06-0.48-0.3-0.72c-0.36-0.18-0.66-0.06-0.66,0.3
			s-0.24,0.54-0.6,0.3c-0.3-0.18-0.42-0.72-0.18-1.21c0.18-0.48,0-0.91-0.36-0.91s-0.6-0.36-0.48-0.72c0.06-0.42-0.18-0.72-0.6-0.66
			c-0.36,0.06-0.6-0.48-0.48-1.39c0.06-0.84-0.12-1.39-0.48-1.27c-0.97,0.3-3.44-2.84-3.8-4.77c-0.18-0.91-0.72-1.93-1.21-2.29
			c-0.48-0.36-0.97-1.27-1.15-1.99c-0.18-0.78-0.42-1.99-0.6-2.72c-0.12-0.72-0.6-1.51-1.03-1.81c-0.6-0.36-0.54-0.48,0.12-0.48
			c0.78-0.06,0.78-0.12-0.06-0.78c-1.27-0.97-2.53-4.89-2.72-8.45c-0.06-1.75-0.48-3.32-1.15-4.04c-0.6-0.66-0.91-1.21-0.6-1.21
			c0.24,0,0.12-0.36-0.24-0.78c-0.54-0.66-0.06-1.03,2.41-1.81c1.69-0.6,3.32-1.03,3.56-1.03c0.3,0,1.27-0.3,2.23-0.66
			c1.33-0.48,1.51-0.72,0.78-1.21c-0.66-0.48-0.48-0.6,0.72-0.36c1.03,0.12,1.51,0,1.27-0.36c-0.24-0.36,0-0.48,0.6-0.24
			c0.54,0.18,1.03,0.18,1.15-0.12c0.18-0.36,8.63-3.08,9.71-3.08c0.24,0,0.42,0.72,0.42,1.69c0,0.91,0.36,2.29,0.78,3.14
			c0.42,0.84,1.15,2.65,1.57,4.1c0.48,1.39,1.03,2.53,1.27,2.53c0.24,0,0.78,1.21,1.21,2.72c0.42,1.51,1.03,2.9,1.27,3.08
			c0.3,0.18,0.54,0.84,0.54,1.45c0,0.6,0.48,1.51,1.15,1.93c0.6,0.42,1.27,1.39,1.51,2.11c0.24,0.78,0.78,1.75,1.15,2.11
			c1.75,1.75,3.44,4.65,3.44,5.79c0,0.66,0.42,1.33,0.91,1.57c0.48,0.18,0.91,0.72,0.91,1.27s0.72,1.21,1.69,1.57
			c1.15,0.42,2.05,1.51,3.14,3.86c0.84,1.81,1.69,3.32,1.99,3.32c0.24,0,0.42,0.42,0.42,0.91c0,0.66,0.66,0.91,2.17,0.91
			c1.69,0,2.11,0.24,1.93,1.03c-0.24,1.21-14,5.79-15.81,5.25c-0.6-0.24-0.97-0.12-0.78,0.18c0.18,0.24-0.66,0.54-1.87,0.54
			c-1.21,0.06-4.59,0.6-7.48,1.27C573.28,778,570.93,778.3,570.38,778L570.38,778z"/>
	</g>
	<g>
		<path class="st7" d="M594.82,769.19c0-1.99-0.3-3.02-1.09-3.62c-0.66-0.42-0.91-0.78-0.66-0.78c0.3,0,0.18-0.36-0.18-0.78
			c-0.36-0.48-0.48-1.03-0.24-1.21c0.36-0.42-0.72-0.6-1.27-0.24c-0.48,0.24-2.72-2.17-2.41-2.65c0.12-0.24-0.3-0.78-0.97-1.15
			c-0.66-0.36-1.09-0.97-0.84-1.27c0.54-0.91-1.03-3.62-1.75-3.14c-0.36,0.18-0.42,0.06-0.24-0.24c0.24-0.36-0.12-1.27-0.78-1.99
			c-0.66-0.72-1.33-1.93-1.57-2.65c-0.24-0.66-0.91-1.63-1.51-2.05c-0.66-0.42-1.15-1.33-1.15-1.99c0-0.66-0.42-1.33-0.91-1.51
			c-0.48-0.24-0.78-0.6-0.6-0.84c0.42-0.66-0.97-4.4-1.75-4.95c-0.36-0.24-0.66-0.66-0.72-0.91c-0.12-1.51-1.15-4.22-1.81-5.01
			c-0.42-0.48-0.78-1.09-0.84-1.33c-0.12-1.09-0.84-2.65-1.45-3.02c-0.36-0.24-0.24-0.54,0.42-0.84c0.54-0.18,1.03-0.72,1.03-1.15
			c0-0.42,1.69-1.21,3.8-1.81c2.05-0.54,6.4-1.93,9.65-3.02l5.85-1.99v1.75c0,1.09,0.42,1.99,1.21,2.47
			c0.66,0.42,1.21,1.27,1.21,1.81c0,0.6,0.3,1.09,0.6,1.09c0.36,0,0.6,0.54,0.6,1.21s0.42,1.21,0.91,1.21
			c0.54,0,0.91,0.54,0.91,1.39c0,0.78,0.42,1.93,0.91,2.59c0.48,0.6,0.91,1.57,0.91,2.05s0.84,1.69,1.81,2.65
			c1.39,1.39,1.81,2.29,1.81,4.16c0,1.81,0.24,2.41,1.21,2.65c0.66,0.18,1.21,0.66,1.21,1.09c0,0.42,0.54,0.91,1.21,1.09
			c0.84,0.18,1.21,0.84,1.21,1.87c0,0.97,0.36,1.57,0.91,1.57c0.48,0,1.03,0.66,1.27,1.51c0.18,0.78,1.15,2.11,2.11,2.84
			c0.97,0.78,1.75,1.99,1.75,2.78c0,0.72,0.3,1.33,0.6,1.33c0.36,0,0.6,0.48,0.6,1.15c0,0.78,0.6,1.21,1.87,1.51
			c2.9,0.54,7.18,0.42,7.18-0.24c0-0.3,0.97-0.6,2.17-0.6c5.25,0,0.36,2.35-17.86,8.69c-8.09,2.78-12.31,3.14-12.85,1.09
			c-0.18-0.6-0.3-0.3-0.36,0.66C595.78,773.23,594.82,772.21,594.82,769.19L594.82,769.19z"/>
	</g>
	<g>
		<path class="st8" d="M620.34,763.7c-0.18-0.3-1.15-0.42-2.17-0.24c-1.09,0.12-1.81,0-1.81-0.42c0-0.36-0.54-0.66-1.21-0.66
			c-0.78,0-1.21-0.42-1.21-1.15c0-0.66-0.24-1.27-0.54-1.39c-0.3-0.06-0.66-0.72-0.78-1.39c-0.06-0.66-0.91-1.87-1.81-2.72
			c-0.84-0.84-1.75-2.11-1.99-2.9c-0.24-0.91-0.72-1.27-1.27-1.09c-0.6,0.24-0.84-0.18-0.84-1.51s-0.3-1.93-1.21-2.17
			c-0.66-0.18-1.21-0.66-1.21-1.09c0-0.42-0.54-0.91-1.21-1.09c-0.97-0.24-1.21-0.84-1.21-2.72s-0.3-2.72-1.33-3.38
			c-0.72-0.54-1.09-0.97-0.78-0.97c0.36,0,0.12-0.3-0.42-0.66c-0.6-0.3-1.09-1.09-1.09-1.63c0-0.6-0.78-1.93-1.81-3.02
			c-1.15-1.27-1.81-2.65-1.81-3.8c0-0.97-0.24-1.75-0.6-1.75c-0.3,0-0.6-0.54-0.6-1.27c0-0.66-0.24-1.09-0.48-0.91
			c-0.3,0.18-1.09-0.78-1.81-2.05c-0.72-1.39-1.03-2.53-0.66-2.72c0.3-0.24,0.42-0.6,0.3-0.84c-0.18-0.24,1.09-0.97,2.84-1.57
			c1.75-0.6,7.36-2.84,12.49-5.01c5.13-2.11,10.68-4.4,12.31-5.01l2.9-1.21l-0.36,2.78c-0.24,1.51-0.24,2.72,0.06,2.72
			s0.78,0.6,1.09,1.39c0.36,0.72,1.21,1.39,1.93,1.51c0.91,0.12,1.39,0.66,1.51,1.81c0.12,1.27,0.54,1.69,1.87,1.81
			c1.27,0.18,1.63,0.54,1.63,1.69c0,0.78,0.24,1.45,0.54,1.45s0.72,0.66,0.91,1.51c0.3,1.15,0.78,1.51,2.11,1.51
			c1.87,0,2.47,0.84,2.47,3.44c0,0.97,0.42,1.63,1.21,1.81c0.66,0.18,1.21,0.84,1.21,1.51c0,1.57,1.39,2.9,3.02,2.9
			c1.75,0,2.9,1.27,3.14,3.38c0.18,1.57,0.48,1.81,3.08,2.29c2.84,0.48,2.84,0.54,2.84,2.84c0,1.27,0.24,2.35,0.54,2.35
			s0.66,0.6,0.78,1.39c0.12,0.97,0.66,1.39,1.87,1.51c0.97,0.12,1.63,0.48,1.51,0.84c-0.3,0.78-14,7.06-23.11,10.5
			c-3.98,1.51-7.72,3.02-8.27,3.32C621.55,764.3,620.76,764.3,620.34,763.7L620.34,763.7z"/>
		<path class="st8" d="M656.18,747.59c0-1.33,0.24-1.51,2.11-1.51c2.59,0,2.72,0.84,0.3,2.11
			C656.3,749.4,656.18,749.34,656.18,747.59z"/>
		<path class="st8" d="M670.66,740.41c0-1.45,0.97-2.17,3.08-2.17c0.6,0,1.15-0.36,1.15-0.78s0.97-1.27,2.11-1.81
			c2.23-1.09,5.73-1.39,5.73-0.54c0,0.48-10.98,6.76-11.77,6.76C670.78,741.86,670.66,741.19,670.66,740.41L670.66,740.41z"/>
		<path class="st8" d="M686.95,731.3c0-1.33,0.24-1.51,2.11-1.51c2.59,0,2.65,0.6,0.36,1.99
			C687.14,733.11,686.95,733.11,686.95,731.3z"/>
		<path class="st8" d="M706.26,719.23c0-1.33,0.24-1.51,2.11-1.51c2.59,0,2.65,0.6,0.36,1.99
			C706.44,721.04,706.26,721.04,706.26,719.23z"/>
		<path class="st8" d="M711.69,715.61c0-0.91,0.36-1.51,0.84-1.51s0.97-0.3,1.09-0.66c0.12-0.36,1.15-0.54,2.29-0.42l2.11,0.18
			l-2.65,1.99C712.18,717.54,711.69,717.6,711.69,715.61L711.69,715.61z"/>
		<path class="st8" d="M626.01,705.66c0-0.36,1.15-1.21,2.59-1.81l2.53-1.15l0.18,1.27c0.12,0.66-0.12,1.51-0.6,1.75
			C629.57,706.44,626.01,706.38,626.01,705.66z"/>
		<path class="st8" d="M741.26,694.25c0-1.75,0.18-1.87,2.17-1.87c2.35,0,2.29,0.54-0.36,2.41l-1.81,1.27V694.25z"/>
		<path class="st8" d="M751.64,685.68c0.18-1.93,0.36-2.05,2.53-2.23c2.17-0.18,2.29-0.12,1.57,0.78c-0.42,0.54-1.57,1.51-2.53,2.23
			l-1.75,1.21L751.64,685.68z"/>
		<path class="st8" d="M666.44,683.45c0-0.48,3.14-2.53,3.86-2.53c0.18,0,0.36,0.66,0.36,1.51c0,1.33-0.24,1.51-2.11,1.51
			C667.41,683.93,666.44,683.69,666.44,683.45z"/>
		<path class="st8" d="M765.39,673.5c0-1.81,0.24-2.23,1.21-2.23c0.78,0,1.21-0.42,1.21-1.21c0-0.78,0.42-1.21,1.21-1.21
			c0.78,0,1.21-0.42,1.21-1.21s0.42-1.21,1.21-1.21s1.21-0.42,1.21-1.21c0-0.78,0.42-1.21,1.21-1.21s1.21-0.42,1.21-1.21
			c0-0.97,0.42-1.21,2.11-1.21c1.15,0,2.11,0.06,2.11,0.18c0,0.12-3.14,3.26-6.94,7.06l-6.94,6.82V673.5L765.39,673.5z"/>
		<path class="st8" d="M784.7,653.28c0-2.53,1.33-3.86,3.44-3.62l1.69,0.18l-2.53,2.72l-2.53,2.72L784.7,653.28L784.7,653.28z"/>
		<path class="st8" d="M791.94,644.41c0-1.69,0.24-2.11,1.21-2.11c0.97,0,1.21-0.42,1.21-1.81c0-1.39,0.24-1.81,1.21-1.81
			c0.78,0,1.21-0.42,1.21-1.21c0-0.97,0.42-1.21,1.87-1.21c1.27,0,1.69,0.24,1.39,0.78c-0.72,1.21-7.54,9.47-7.84,9.47
			C792.06,646.53,791.94,645.56,791.94,644.41z"/>
		<path class="st8" d="M804.01,628.73c0-1.93,0.12-2.11,1.81-2.11h1.81l-1.33,2.11C804.55,631.38,804.01,631.38,804.01,628.73z"/>
		<path class="st8" d="M813.66,614.25c0-1.69,0.24-2.11,1.21-2.11s1.21-0.42,1.21-2.11s0.24-2.11,1.21-2.11s1.21-0.42,1.21-2.11
			c0-1.87,0.18-2.11,1.51-2.11c0.84,0,1.51,0.12,1.51,0.3c0,0.78-6.82,12.37-7.3,12.37C813.9,616.36,813.66,615.39,813.66,614.25z"
			/>
		<path class="st8" d="M625.29,608.69c-0.6-0.12-1.09-0.66-1.09-1.15c0-0.6,0.78-0.84,2.72-0.84s2.72,0.24,2.72,0.84
			c0,0.66-1.99,1.69-3.02,1.51C626.44,609,625.83,608.88,625.29,608.69z"/>
		<path class="st8" d="M620.46,608.09c-1.99-0.48-1.21-1.99,1.03-1.99c1.69,0,2.11,0.24,2.11,1.21
			C623.6,608.51,622.76,608.69,620.46,608.09z"/>
		<path class="st8" d="M631.44,607.31c0-0.97,0.42-1.21,2.11-1.21c2.41,0,2.96,1.45,0.78,2.05
			C632.05,608.75,631.44,608.57,631.44,607.31z"/>
		<path class="st8" d="M645.32,606.7c0-1.03,0.42-1.21,2.41-1.21c2.72,0,3.44,1.39,1.09,2.05
			C646.29,608.21,645.32,607.97,645.32,606.7z"/>
		<path class="st8" d="M736.31,605.5l-1.69-2.11l1.57-0.18c1.99-0.24,2.17-0.06,1.93,2.35l-0.18,2.05L736.31,605.5L736.31,605.5z"/>
		<path class="st8" d="M610.63,604.83c-1.33-0.66-2.96-1.75-3.62-2.41c-1.15-1.15-1.15-1.15,1.09-1.15c1.57,0,2.23,0.24,2.23,0.91
			c0,0.54,0.54,0.91,1.51,0.91c1.21,0,1.51,0.3,1.51,1.51c0,0.84-0.06,1.51-0.18,1.51C613.1,606.1,611.96,605.56,610.63,604.83z"/>
		<path class="st8" d="M664.63,604.89c0-0.97,0.42-1.21,2.11-1.21c2.41,0,2.96,1.45,0.78,2.05
			C665.23,606.34,664.63,606.16,664.63,604.89z"/>
		<path class="st8" d="M670.66,604.29c0-0.97,0.42-1.21,2.11-1.21c2.41,0,2.96,1.45,0.78,2.05
			C671.27,605.74,670.66,605.56,670.66,604.29z"/>
		<path class="st8" d="M702.04,600.67c0-1.03,0.42-1.21,3.02-1.21c2.17,0,3.02,0.24,3.02,0.84c0,0.91-1.81,1.57-4.34,1.57
			C702.46,601.88,702.04,601.57,702.04,600.67z"/>
		<path class="st8" d="M722.55,600.07c0-0.97,0.42-1.21,2.11-1.21c2.41,0,2.96,1.45,0.78,2.05
			C723.16,601.51,722.55,601.33,722.55,600.07z"/>
		<path class="st8" d="M823.32,596.75c0-1.87,0.18-2.11,1.51-2.11c1.75,0,1.81,0.12,0.6,2.41
			C824.16,599.46,823.32,599.34,823.32,596.75z"/>
		<path class="st8" d="M600.01,595.24c-2.41-3.26-2.59-4.22-0.84-4.22c0.91,0,1.51,0.36,1.51,0.84s0.3,0.97,0.66,1.09
			c0.36,0.12,0.54,1.15,0.42,2.29l-0.18,2.11L600.01,595.24L600.01,595.24z"/>
		<path class="st8" d="M826.94,588.9c0-1.87,0.18-2.11,1.51-2.11c1.75,0,1.81,0.12,0.6,2.41
			C827.78,591.62,826.94,591.5,826.94,588.9z"/>
		<path class="st8" d="M830.56,579.31c0-1.99,0.12-2.17,1.81-2.17c1.81,0,1.81,0,1.03,1.99c-0.42,1.03-1.27,1.99-1.81,2.11
			C830.8,581.42,830.56,581,830.56,579.31L830.56,579.31z"/>
		<path class="st8" d="M832.97,574.48c0-1.93,0.18-2.17,1.51-2.17c1.45,0,1.51,0.06,0.72,1.93
			C834.06,577.02,832.97,577.14,832.97,574.48z"/>
		<path class="st8" d="M835.38,567.18c0-1.81,0.18-2.11,1.45-2.11c1.39,0,1.45,0.12,0.78,2.11c-0.36,1.15-0.97,2.11-1.45,2.11
			S835.38,568.51,835.38,567.18z"/>
		<path class="st8" d="M839,555.11c0-1.69,0.24-2.11,1.21-2.11c1.27,0,1.45,0.6,0.84,2.9C840.45,558.07,839,557.53,839,555.11z"/>
		<path class="st8" d="M842.62,537.01c0-3.14,0.06-3.32,1.51-3.32c0.84,0,1.51,0.12,1.51,0.3c0,0.12-0.3,1.63-0.66,3.32
			C844.07,541.6,842.62,541.42,842.62,537.01z"/>
		<path class="st8" d="M845.04,520.12c0-1.69,0.24-2.11,1.21-2.11c1.27,0,1.45,0.6,0.84,2.9
			C846.49,523.08,845.04,522.53,845.04,520.12z"/>
		<path class="st8" d="M845.64,491.16c0-2.41,1.45-2.96,2.05-0.72c0.6,2.23,0.42,2.84-0.84,2.84
			C845.88,493.27,845.64,492.85,845.64,491.16z"/>
		<path class="st8" d="M843.23,467.02c0-2.41,1.45-2.96,2.05-0.72c0.6,2.23,0.42,2.84-0.84,2.84
			C843.47,469.13,843.23,468.71,843.23,467.02z"/>
		<path class="st8" d="M842.02,459.78c0-2.41,1.45-2.96,2.05-0.72c0.6,2.23,0.42,2.84-0.84,2.84
			C842.26,461.89,842.02,461.47,842.02,459.78z"/>
		<path class="st8" d="M837.8,441.68c0-2.41,1.45-2.96,2.05-0.72c0.6,2.23,0.42,2.84-0.84,2.84
			C838.04,443.79,837.8,443.37,837.8,441.68z"/>
		<path class="st8" d="M827.54,411.51c0-3.2,0.78-2.78,2.9,1.69c0.12,0.24-0.48,0.42-1.33,0.42
			C827.72,413.62,827.54,413.38,827.54,411.51L827.54,411.51z"/>
		<path class="st8" d="M792.54,353.53c0-2.35,0.54-2.29,2.41,0.36l1.27,1.81h-1.81C792.67,355.7,792.54,355.52,792.54,353.53z"/>
		<path class="st8" d="M784.1,344.24c0-2.47,0.48-2.35,2.96,0.78c0.72,0.91,0.66,1.03-1.09,1.03
			C784.28,346.05,784.1,345.87,784.1,344.24z"/>
		<path class="st8" d="M641.1,333.38c-0.72-1.39-1.81-3.02-2.41-3.62c-1.21-1.21-1.21-1.21,0.91-1.21c1.87,0,2.11,0.18,2.11,1.51
			c0,0.97,0.36,1.51,0.91,1.51c0.6,0,0.91,0.66,0.91,2.11C643.51,336.45,642.61,336.33,641.1,333.38z"/>
		<path class="st8" d="M605.08,323.6c-1.57-0.3-2.59-0.91-2.59-1.45c0-0.97,0.91-1.03,5.07-0.48c2.17,0.3,2.78,0.66,2.78,1.51
			C610.33,324.45,609.18,324.57,605.08,323.6z"/>
		<path class="st8" d="M595.42,320.34c-2.59-1.27-2.53-2.05,0.12-2.05c1.87,0,2.11,0.18,2.11,1.51c0,0.84-0.06,1.51-0.12,1.51
			C597.41,321.31,596.45,320.83,595.42,320.34z"/>
		<path class="st8" d="M583.3,310.75l-1.99-2.41l1.63-0.18c2.11-0.3,2.78,0.48,2.53,2.96l-0.18,2.05L583.3,310.75L583.3,310.75z"/>
		<path class="st8" d="M753.33,281.85c0-1.99,0.12-2.17,1.87-2.17h1.81l-1.27,1.81C753.87,284.14,753.33,284.2,753.33,281.85z"/>
		<path class="st8" d="M568.87,267.91c-0.66-1.99-0.6-2.11,0.78-2.11c1.27,0,1.45,0.3,1.45,2.11c0,1.33-0.3,2.11-0.78,2.11
			S569.24,269.06,568.87,267.91z"/>
		<path class="st8" d="M557.71,258.74c-1.99-0.48-1.21-1.99,1.03-1.99c1.69,0,2.11,0.24,2.11,1.21
			C560.85,259.16,560.01,259.34,557.71,258.74z"/>
		<path class="st8" d="M772.63,257.05c0-1.87,0.18-2.11,1.51-2.11c1.81,0,1.81,0.18,0.48,2.47
			C773.24,259.7,772.63,259.64,772.63,257.05z"/>
		<path class="st8" d="M545.34,254.64l-1.69-1.45l2.29-0.06c1.99,0,2.23,0.18,2.23,1.51C548.18,256.51,547.52,256.57,545.34,254.64z
			"/>
		<path class="st8" d="M785.91,229.29c0-1.81,0.18-2.11,1.45-2.11c1.39,0,1.45,0.12,0.78,2.11c-0.36,1.15-0.97,2.11-1.45,2.11
			S785.91,230.62,785.91,229.29z"/>
		<path class="st8" d="M787.11,159.3c0-2.41,1.45-2.96,2.05-0.72c0.6,2.23,0.42,2.84-0.84,2.84
			C787.36,161.41,787.11,160.99,787.11,159.3z"/>
		<path class="st8" d="M784.7,152.06c0-1.33,0.3-2.11,0.78-2.11s1.09,0.97,1.45,2.11c0.66,1.99,0.6,2.11-0.78,2.11
			C784.88,154.17,784.7,153.87,784.7,152.06z"/>
		<path class="st8" d="M752.72,105.24c0-1.75,0.12-1.81,1.03-1.09c3.14,2.47,3.26,2.96,0.78,2.96
			C752.9,107.11,752.72,106.93,752.72,105.24z"/>
		<path class="st8" d="M746.69,100.41V98.6l1.81,1.27c2.65,1.87,2.72,2.41,0.36,2.41C746.87,102.28,746.69,102.16,746.69,100.41z"/>
		<path class="st8" d="M740.05,95.65v-1.81l2.11,1.33c2.65,1.75,2.65,2.29,0,2.29C740.23,97.46,740.05,97.34,740.05,95.65z"/>
		<path class="st8" d="M722.55,86.29c0-1.45,0.06-1.51,1.93-0.72c2.78,1.15,2.9,2.23,0.24,2.23
			C722.8,87.8,722.55,87.62,722.55,86.29z"/>
		<path class="st8" d="M716.52,83.88c0-1.45,0.06-1.51,1.93-0.72c2.78,1.15,2.9,2.23,0.24,2.23
			C716.76,85.39,716.52,85.21,716.52,83.88z"/>
		<path class="st8" d="M709.28,81.77c0-1.27,0.6-1.45,2.9-0.84c2.17,0.6,1.63,2.05-0.78,2.05C709.7,82.98,709.28,82.73,709.28,81.77
			z"/>
		<path class="st8" d="M649.55,79.72c0-0.78,1.69-1.57,3.5-1.57c0.36,0,0.72,0.54,0.72,1.21c0,0.97-0.42,1.21-2.11,1.21
			C650.27,80.56,649.55,80.26,649.55,79.72z"/>
	</g>
	<g>
		<path class="st9" d="M640.86,755.01c0.97-0.72,1.87-1.51,2.05-1.69c0.48-0.6,3.62-0.6,3.62-0.06c0,0.3-0.91,0.84-1.93,1.27
			c-1.09,0.36-2.47,0.97-3.02,1.27C639.59,756.82,639.11,756.34,640.86,755.01L640.86,755.01z"/>
		<path class="st9" d="M646.35,752.42c-0.54-0.42-1.03-1.21-1.03-1.81c0-0.84-0.18-0.91-0.91-0.3c-0.48,0.42-0.72,1.03-0.48,1.45
			c0.18,0.36,0,0.3-0.48-0.12c-0.72-0.66-0.72-0.84,0-1.27c0.66-0.42,0.66-0.54,0-0.84c-0.6-0.24-0.54-0.36,0.24-0.36
			c0.54-0.06,1.03-0.36,1.03-0.72c0-0.36-0.36-0.54-0.78-0.36c-0.54,0.18-0.84-0.36-0.91-1.69c-0.12-1.33,0.18-2.11,0.78-2.35
			c0.54-0.18,0.78-0.12,0.6,0.24s-0.06,0.6,0.24,0.6c0.36,0,0.66-0.48,0.66-1.09c0-0.91-0.36-1.09-1.81-0.84
			c-1.03,0.12-1.81,0-1.75-0.24c0.24-1.39-0.12-2.72-0.66-2.35c-0.3,0.18-0.6-0.06-0.6-0.6c0-0.6-0.3-0.84-0.72-0.54
			c-0.6,0.36-0.6,0.24,0-0.42c0.36-0.42,0.72-0.97,0.72-1.15c0-0.6-2.53-0.54-3.74,0.06c-0.91,0.48-1.09,0.36-1.09-0.91
			c0-0.78-0.36-1.63-0.72-1.75c-0.6-0.24-0.6-0.36,0-0.36c0.36-0.06,0.72-0.48,0.72-1.09c0-0.54-0.18-0.78-0.42-0.6
			c-0.72,0.78-1.99-0.97-1.99-2.84c0-1.45-0.18-1.63-0.6-0.97c-0.42,0.66-0.6,0.66-0.6,0.12c0-0.42-0.24-0.6-0.6-0.42
			c-0.3,0.18-0.6-0.06-0.6-0.54c0-0.54-0.42-0.97-0.91-0.97s-1.03-0.66-1.27-1.51c-0.18-0.84-0.6-1.33-0.91-1.15
			c-0.3,0.18-0.54-0.48-0.54-1.51c0-1.51-0.24-1.81-1.63-1.99c-1.33-0.12-1.75-0.6-2.05-1.99c-0.24-0.97-0.42-1.45-0.48-1.03
			c-0.12,1.03-1.57,0.91-2.53-0.3c-0.48-0.54-0.54-0.84-0.12-0.6c0.48,0.3,0.48,0.06,0-1.03c-0.42-0.78-0.91-1.33-1.15-1.21
			c-0.3,0.18-0.48-0.24-0.48-0.91c0-0.84-0.36-1.27-1.21-1.27c-0.66,0-1.21-0.42-1.21-0.91c0-1.03-1.09-1.15-3.26-0.3
			c-2.23,0.84-1.93,0.24,0.42-0.84c45.07-20.27,80.55-43.14,109.99-70.9c5.79-5.49,7.9-8.45,11.71-16.59
			c3.32-7.06,4.04-10.44,3.02-14.18c-0.84-3.2-4.4-6.82-7.54-7.72c-4.22-1.15-26.55,0-50.38,2.72c-33.91,3.8-52.86,5.01-60.34,3.8
			c-8.75-1.45-17.38-7.66-21.6-15.63c-4.28-7.96-3.98-2.9-3.86-75.84c0.18-72.95,0.18-73.13,3.86-88.39
			c3.44-14.54,10.56-32.1,18.76-46.16c3.92-6.76,13.52-20.64,18.64-26.97c2.65-3.26,5.31-7.06,5.91-8.45
			c2.78-6.09,0.66-14.06-4.71-18.28c-4.16-3.2-7.36-3.92-17.98-3.92c-11.04,0-16.89-1.03-23.11-3.92
			c-5.55-2.65-8.81-5.25-12.97-10.44c-6.28-7.84-9.65-16.71-12.37-32.7c-1.39-8.27-2.05-10.8-3.32-12.67
			c-2.29-3.44-5.37-5.25-10.32-6.03c-6.4-0.97-9.59-2.23-12.67-4.95c-4.1-3.62-5.31-6.34-5.01-11.58c0.24-5.07,2.29-9.83,8.51-19.73
			c11.16-17.98,13.46-23.71,14.06-35.24c0.66-12.97,4.16-28.42,9.29-40.73c2.9-7,9.9-19.61,14.36-25.95
			c4.89-6.94,15.02-17.32,21.42-21.96c12.55-9.23,27.45-15.99,42.3-19.37c28.3-6.34,53.82-3.62,79.28,8.45
			c22.93,10.92,43.02,31.13,54.3,54.61c12.31,25.7,14.48,58.83,5.67,85.98c-6.52,19.91-17.14,36.56-37.35,58.41
			c-4.89,5.37-5.85,7.6-5.85,13.7c0,7.9,1.87,10.8,12.25,18.52c11.58,8.63,15.69,12.13,23.65,20.15
			c13.76,13.94,26.55,30.35,34.57,44.59c9.65,17.02,18.58,37.77,22.69,52.8c0.78,2.65,1.87,6.58,2.47,8.75
			c3.98,14.18,7.18,39.82,7.18,57.2c0,10.2-2.11,33.31-3.02,33.31c-0.18,0-0.42,1.51-0.48,3.32c-0.06,1.87-1.21,7.6-2.53,12.85
			c-2.47,9.77-8.45,27.94-9.05,27.57c-0.18-0.12-0.36,0.42-0.42,1.09c-0.06,1.21-2.72,7.42-6.4,14.9
			c-1.63,3.32-5.91,11.22-10.62,19.49c-1.09,1.93-3.98,6.28-9.71,14.54c-1.45,2.11-6.28,8.39-7.36,9.65
			c-0.6,0.66-1.09,1.45-1.09,1.69c0,0.3-0.24,0.36-0.6,0.18c-0.3-0.18-0.6,0-0.6,0.48c0,0.42-0.48,1.33-1.09,1.99
			c-0.54,0.6-1.69,1.99-2.47,2.96c-4.53,5.91-13.27,15.45-21.66,23.71c-29.08,28.72-69.63,57.08-109.93,77.05
			C650.33,752.24,647.55,753.32,646.35,752.42L646.35,752.42z"/>
	</g>
</g>
</svg>
